<svg xmlns="http://www.w3.org/2000/svg" viewBox="0 0 504.83 163.12"><defs><style>.cls-1{fill:#4d4d4f}.cls-2{fill:#76aca9}.cls-3{fill:none}</style></defs><title>Asset 1</title><g id="Layer_2" data-name="Layer 2"><g id="Layer_1-2" data-name="Layer 1"><path class="cls-1" d="M473.72 90.11a4.89 4.89 0 1 1-4.87 4.89 4.9 4.9 0 0 1 4.87-4.89zm0 9a4.06 4.06 0 1 0-4.06-4.11 4.05 4.05 0 0 0 4.06 4.06zM472 92.76a.25.25 0 0 1 .25-.26h1.93a1.53 1.53 0 0 1 1.7 1.5 1.43 1.43 0 0 1-1.1 1.48l.82 1.61a.25.25 0 0 1-.23.36h-.46a.33.33 0 0 1-.25-.19l-.76-1.69h-1v1.62a.26.26 0 0 1-.26.26h-.36a.25.25 0 0 1-.25-.26zm2.18 2A.78.78 0 0 0 475 94a.75.75 0 0 0-.82-.77h-1.33v1.57zM161.94 62.05a.6.6 0 0 1 .57-.6h7.3a11.11 11.11 0 1 1 0 22.21h-7.3a.59.59 0 0 1-.57-.6zm7.43 18.6a8.1 8.1 0 0 0 0-16.19h-4.19v16.19zM187.09 62.05a.6.6 0 0 1 .6-.6h12.7a.61.61 0 0 1 .6.6v1.78a.61.61 0 0 1-.6.6h-10v6.48h8.47a.62.62 0 0 1 .6.6v1.78a.6.6 0 0 1-.6.6h-8.47v6.82h10a.61.61 0 0 1 .6.6v1.75a.6.6 0 0 1-.6.6h-12.7a.6.6 0 0 1-.6-.6zM205.93 80.46c.28-.41.54-.89.82-1.3a.72.72 0 0 1 1.08-.26c.19.16 2.63 2.19 5.08 2.19 2.19 0 3.58-1.33 3.58-3 0-1.9-1.65-3.11-4.79-4.41s-5.77-3-5.77-6.73c0-2.47 1.9-5.87 6.95-5.87a10.8 10.8 0 0 1 5.87 1.92.76.76 0 0 1 .19 1.08c-.26.38-.54.83-.8 1.21a.75.75 0 0 1-1.11.32 9.68 9.68 0 0 0-4.28-1.61c-2.67 0-3.59 1.68-3.59 2.85 0 1.81 1.4 2.92 4 4 3.71 1.51 6.84 3.26 6.84 7.15 0 3.3-3 6-7.08 6a10.23 10.23 0 0 1-6.82-2.51.66.66 0 0 1-.17-1.03zM229 64.43h-5.18a.6.6 0 0 1-.6-.6v-1.78a.6.6 0 0 1 .6-.6h13.65a.6.6 0 0 1 .6.6v1.78a.6.6 0 0 1-.6.6h-5.17v18.63a.62.62 0 0 1-.61.6h-2.09a.62.62 0 0 1-.6-.6zM243.09 62.05a.63.63 0 0 1 .61-.6h2.09a.62.62 0 0 1 .6.6v21a.62.62 0 0 1-.6.6h-2.09a.62.62 0 0 1-.61-.6zM254.13 61.7a.6.6 0 0 1 .6-.57h.8l13.77 15.93v-15a.6.6 0 0 1 .6-.6h2a.63.63 0 0 1 .61.6v21.35a.6.6 0 0 1-.51.59h-.82l-13.81-16.4v15.46a.6.6 0 0 1-.6.6h-2a.62.62 0 0 1-.6-.6zM277.31 82.84l9.74-21.36a.75.75 0 0 1 .54-.35h.32a.75.75 0 0 1 .54.35l9.68 21.36a.56.56 0 0 1-.54.82h-2a.75.75 0 0 1-.73-.47l-2-4.35h-10.35c-.63 1.46-1.3 2.89-1.93 4.35a.8.8 0 0 1-.73.47h-2a.56.56 0 0 1-.54-.82zm14.38-6.73l-3.91-8.7h-.15l-3.88 8.7zM304.75 64.43h-5.18a.6.6 0 0 1-.6-.6v-1.78a.6.6 0 0 1 .6-.6h13.65a.6.6 0 0 1 .6.6v1.78a.6.6 0 0 1-.6.6h-5.17v18.63a.62.62 0 0 1-.61.6h-2.09a.62.62 0 0 1-.6-.6zM318.83 62.05a.62.62 0 0 1 .6-.6h2.09a.63.63 0 0 1 .61.6v21a.62.62 0 0 1-.61.6h-2.09a.62.62 0 0 1-.6-.6zM339.63 61.13a11.43 11.43 0 1 1-11.39 11.46 11.41 11.41 0 0 1 11.39-11.46zm0 19.68a8.26 8.26 0 1 0-8.22-8.22 8.25 8.25 0 0 0 8.22 8.22zM357.17 61.7a.59.59 0 0 1 .6-.57h.79l13.77 15.93v-15a.61.61 0 0 1 .61-.6h2a.62.62 0 0 1 .6.6v21.35a.59.59 0 0 1-.6.57h-.82L360.4 67.6v15.46a.6.6 0 0 1-.6.6h-2a.62.62 0 0 1-.6-.6zM161.94 91.9a.6.6 0 0 1 .6-.6h7.11c3.84 0 6.6 2.54 6.6 5.87a6.09 6.09 0 0 1-3.3 5c1.69.7 4 2.26 4 5.17 0 3.56-2.92 6.13-6.92 6.13h-7.46a.6.6 0 0 1-.6-.6zm8 18.69a3.39 3.39 0 0 0 3.43-3.46c0-1.93-1.84-3.33-3.91-3.33h-4.34v6.79zm-.51-9.65a3.18 3.18 0 0 0 3.27-3.39 3.07 3.07 0 0 0-3.27-3.27h-4.28v6.66zM183.25 91.9a.6.6 0 0 1 .6-.6h8.64a6.85 6.85 0 0 1 6.92 6.79 7 7 0 0 1-4.7 6.44l4.35 8.06a.6.6 0 0 1-.54.92H196a.62.62 0 0 1-.51-.28l-4.22-8.41h-4.79v8.09a.62.62 0 0 1-.6.6h-2.07a.6.6 0 0 1-.6-.6zm9 10.19a3.94 3.94 0 0 0 3.87-3.94 3.89 3.89 0 0 0-3.87-3.78h-5.65v7.72zM205.93 91.9a.62.62 0 0 1 .6-.6h2.09a.62.62 0 0 1 .61.6v21a.62.62 0 0 1-.61.6h-2.09a.62.62 0 0 1-.6-.6zM220 94.28h-5.17a.61.61 0 0 1-.61-.6V91.9a.6.6 0 0 1 .61-.6h13.64a.6.6 0 0 1 .6.6v1.78a.6.6 0 0 1-.6.6h-5.17v18.63a.62.62 0 0 1-.6.6h-2.1a.62.62 0 0 1-.6-.6zM234.09 91.9a.62.62 0 0 1 .6-.6h2.09a.62.62 0 0 1 .61.6v21a.62.62 0 0 1-.61.6h-2.09a.62.62 0 0 1-.6-.6zM243.7 110.31c.28-.42.54-.89.82-1.31a.72.72 0 0 1 1.08-.25c.19.16 2.63 2.19 5.08 2.19 2.19 0 3.58-1.33 3.58-3 0-1.9-1.65-3.11-4.79-4.41s-5.77-3-5.77-6.73c0-2.48 1.9-5.87 6.94-5.87a10.81 10.81 0 0 1 5.88 1.87.77.77 0 0 1 .19 1.08c-.26.38-.54.82-.8 1.21a.74.74 0 0 1-1.11.31 9.83 9.83 0 0 0-4.28-1.58c-2.67 0-3.59 1.68-3.59 2.85 0 1.81 1.4 2.92 4 4 3.68 1.49 6.83 3.24 6.83 7.11 0 3.3-3 6-7.08 6a10.23 10.23 0 0 1-6.82-2.51.66.66 0 0 1-.16-.96zM263.74 91.9a.62.62 0 0 1 .6-.6h2.1a.6.6 0 0 1 .6.6v8.85h11.61V91.9a.6.6 0 0 1 .61-.6h2.09a.62.62 0 0 1 .6.6v21a.62.62 0 0 1-.6.6h-2.09a.6.6 0 0 1-.61-.6v-9.17H267v9.17a.6.6 0 0 1-.6.6h-2.1a.62.62 0 0 1-.6-.6zM308.08 91a11 11 0 0 1 7.68 3 .6.6 0 0 1 0 .89l-1.4 1.43c-.22.28-.5.28-.79 0a8.6 8.6 0 0 0-5.49-2.13 8.24 8.24 0 0 0 0 16.47 8.51 8.51 0 0 0 5.46-2.09.59.59 0 0 1 .76 0l1.46 1.43a.6.6 0 0 1 0 .86 10.92 10.92 0 0 1-7.71 3.08 11.43 11.43 0 1 1 0-22.85zM331.58 91a11.43 11.43 0 1 1-11.39 11.45A11.41 11.41 0 0 1 331.58 91zm0 19.67a8.25 8.25 0 1 0-8.22-8.22 8.25 8.25 0 0 0 8.22 8.2zM349.11 91.9a.6.6 0 0 1 .6-.6h2.1a.62.62 0 0 1 .6.6v18.66H361a.6.6 0 0 1 .6.6v1.75a.6.6 0 0 1-.6.6h-11.3a.6.6 0 0 1-.6-.6zM365.82 91.9a.62.62 0 0 1 .6-.6h2.13a.6.6 0 0 1 .6.6V105c0 3.17 2 5.64 5.27 5.64s5.33-2.44 5.33-5.58V91.9a.6.6 0 0 1 .61-.6h2.12a.62.62 0 0 1 .61.6v13.33a8.64 8.64 0 0 1-17.27 0zM392.94 91.45a.64.64 0 0 1 .57-.47h.49a.66.66 0 0 1 .54.35l6.63 16.21h.13l6.6-16.21a.59.59 0 0 1 .54-.35h.56a.65.65 0 0 1 .57.47l3.9 21.33a.54.54 0 0 1-.57.73h-2.06a.67.67 0 0 1-.61-.44l-2.34-14.19h-.1l-5.71 14.6a.54.54 0 0 1-.54.35h-.57a.56.56 0 0 1-.54-.35l-5.75-14.6h-.12l-2.29 14.19a.61.61 0 0 1-.57.44h-2.06a.57.57 0 0 1-.61-.73zM419.67 91.9a.6.6 0 0 1 .61-.6h7.1c3.84 0 6.61 2.54 6.61 5.87a6.1 6.1 0 0 1-3.31 5c1.69.7 4 2.26 4 5.17 0 3.56-2.92 6.13-6.92 6.13h-7.45a.6.6 0 0 1-.61-.6zm8 18.69a3.38 3.38 0 0 0 3.43-3.46c0-1.93-1.84-3.33-3.91-3.33h-4.34v6.79zm-.51-9.65a3.18 3.18 0 0 0 3.27-3.39 3.07 3.07 0 0 0-3.27-3.27h-4.28v6.66zM441 91.9a.62.62 0 0 1 .61-.6h2.09a.62.62 0 0 1 .6.6v21a.62.62 0 0 1-.6.6h-2.09a.62.62 0 0 1-.61-.6zM449 112.69l9.75-21.36a.73.73 0 0 1 .54-.35h.32a.74.74 0 0 1 .53.35l9.69 21.36a.56.56 0 0 1-.54.82h-2a.74.74 0 0 1-.73-.48l-2-4.34h-10.32c-.63 1.46-1.3 2.89-1.94 4.34a.77.77 0 0 1-.73.48h-2a.56.56 0 0 1-.57-.82zm14.41-6.69l-3.9-8.7h-.16l-3.87 8.7z"/><path class="cls-2" d="M137.66 85.78a5.75 5.75 0 0 1 .19 1.19c.08.7.13 1.46.16 2.28s0 1.59 0 2.29-.06 1.07-.16 1.12a2.76 2.76 0 0 0-.54.38 1.3 1.3 0 0 1-.31.24 1.87 1.87 0 0 0-.85.38 2.21 2.21 0 0 1-.39.31 2.53 2.53 0 0 0-.38.31v-.08c-.41.26-.88.57-1.4.93-.25.21-.51.4-.77.58s-.51.35-.77.5-.5.39-.74.55l-.57.38-.47.35-.23.19a1.77 1.77 0 0 1-1 .39 1.2 1.2 0 0 1-.3.23l-.32.16c0 .15-.05.23-.15.23a.32.32 0 0 1-.23.08 1.31 1.31 0 0 0-.2.11.61.61 0 0 1-.19.12.8.8 0 0 1-.77.92l-.23.16-.39.31c-.41.41-.67.62-.77.62a2.64 2.64 0 0 1-.43.23 2.23 2.23 0 0 0-.42.23 3.17 3.17 0 0 1-.7.31 2.85 2.85 0 0 1-.77.46 1.8 1.8 0 0 0-.7.55l-.15.3v7.23a2.34 2.34 0 0 0-.07.57v.51a4 4 0 0 1 0 .54 2.83 2.83 0 0 0 0 .54 1.59 1.59 0 0 0-.08.5v1.66a4.63 4.63 0 0 1-.08 1.09v1.7a.76.76 0 0 1-.84.77h-2.25a3.75 3.75 0 0 1-.69.08h-.62a3.63 3.63 0 0 1-.54.08h-.31a3.3 3.3 0 0 1-1.4 0v.15h-.3a.27.27 0 0 1-.16.08.45.45 0 0 1-.31.07 19.22 19.22 0 0 1-2.63 0h-.69a3.68 3.68 0 0 1-.7-.07h-.65a3.46 3.46 0 0 1-.66-.08h-4.56c-.52 0-1 .08-1.47.08h-5.55a2.32 2.32 0 0 1-.78-.08.43.43 0 0 1-.3-.08h-.47a.45.45 0 0 0-.31-.07 1.85 1.85 0 0 1-1.31.3.81.81 0 0 0-.35-.07.82.82 0 0 1-.35-.08h-1.47a2.7 2.7 0 0 1-.77.08 2.84 2.84 0 0 1-.77.07 2.81 2.81 0 0 1-.85.08 4.24 4.24 0 0 1-.93.08 4.67 4.67 0 0 0-1 .08h-.92a4.47 4.47 0 0 1-.93-.16h-.7a.78.78 0 0 1-.35.08.69.69 0 0 0-.35.08h-1.09a.87.87 0 0 1-.39.08c-.25 0-.29.12-.11.23a.74.74 0 0 1 .35.46 11.88 11.88 0 0 1-.24 3.56 3.35 3.35 0 0 0 0 1 2.18 2.18 0 0 0 0 .39 4.39 4.39 0 0 1 0 .54v.54a3.18 3.18 0 0 0-.08.85 3.71 3.71 0 0 1 0 .47 2.38 2.38 0 0 0 0 .46 3.18 3.18 0 0 0-.08.85 4.31 4.31 0 0 1-.15.93l-.24 7.35v1.08a5.35 5.35 0 0 1 0 .58 3.52 3.52 0 0 0 0 .58v.54c-.05.67-.34 1-.86 1h-.92a4.47 4.47 0 0 0-.93.16 2.26 2.26 0 0 1-1.16 0 2.45 2.45 0 0 1-1.08-.23c-.11-.11-.23-.11-.39 0a.74.74 0 0 1-.54.23l-.23-.46a1 1 0 0 1 0-.55 6.46 6.46 0 0 0 0-1.39 2.61 2.61 0 0 1-.16-.7v-1.31a.7.7 0 0 1-.07-.31 1.41 1.41 0 0 0-.08-.39v-4.79a.63.63 0 0 0 0-.23.63.63 0 0 1 0-.23v-2.63a2.27 2.27 0 0 1 .16-.7 4.54 4.54 0 0 0 0-2 5.08 5.08 0 0 1 .07-2 2.71 2.71 0 0 1 .16-1.08 1.65 1.65 0 0 0 .08-1.08 4 4 0 0 1-.16-.93.6.6 0 0 1-.38.08c-.21-.06-.47-.13-.78-.24a.71.71 0 0 1-.54-.54.82.82 0 0 0-.77-.39h-5.09a2.64 2.64 0 0 1-.62-.15h-.54a5.62 5.62 0 0 1-3 .31H64.2a2.84 2.84 0 0 1-.69.08 1.39 1.39 0 0 1-.51.08h-.39a7.53 7.53 0 0 0-2-.16 4.58 4.58 0 0 1-.93.16 1.83 1.83 0 0 1-.46.07 1.55 1.55 0 0 0-.47.08 2.42 2.42 0 0 1-1-.08h-.77a1 1 0 0 1-1.32-.46.92.92 0 0 1-.62.31c-.1.1-.23 0-.38-.39A2.25 2.25 0 0 1 53 119h-2.48a5.84 5.84 0 0 1-.93.08H47v.08h-1a4.33 4.33 0 0 0-.92.15h-3.72a4.32 4.32 0 0 1-.82-.07 2.85 2.85 0 0 0-.65-.08 1 1 0 0 1-.43-.08c-.16-.11-.28-.11-.38 0a2.39 2.39 0 0 1-.63.23l-.15-.46a.64.64 0 0 1-.08-.39 2.07 2.07 0 0 0 0-1.39 2.5 2.5 0 0 1-.07-.7 1.41 1.41 0 0 1-.08-.61c-.1-.73-.21-1.4-.31-2s-.2-1-.27-1.47a7.67 7.67 0 0 1-.12-.86 5.3 5.3 0 0 1-.08-1 1.47 1.47 0 0 1-.07-.46 1.55 1.55 0 0 0-.08-.47v-.93a4.08 4.08 0 0 1-.08-.92 3.69 3.69 0 0 1 .08-.85 2.84 2.84 0 0 1 .08-.78v-.23l-.78-.93a2.5 2.5 0 0 0 .47-.61 1.05 1.05 0 0 0 .15-.7v-.08a8.16 8.16 0 0 1-.65-.58 2.25 2.25 0 0 0-.58-.42 1.92 1.92 0 0 1-.85-.39 1.83 1.83 0 0 0-.85-.39c-.16 0-.39-.28-.7-.69l-.43-.3-.31-.16a.92.92 0 0 1-.69-1.16.9.9 0 0 1-.62-.07q-.15 0-.15-.54a1.69 1.69 0 0 1-1.55-.47 1.78 1.78 0 0 0-.23-.19l-.47-.35-.61-.46c-.21-.16-.44-.31-.7-.47a13.47 13.47 0 0 1-1.54-1.08c-.27-.21-.51-.39-.74-.54s-.45-.31-.66-.47v.08a1.49 1.49 0 0 0-.39-.27 1.61 1.61 0 0 1-.38-.27 9.61 9.61 0 0 0-.85-.46 6.69 6.69 0 0 0-.85-.62c-.11 0-.17-.43-.2-1.12s0-1.46 0-2.28v-2.32-1.32a1.92 1.92 0 0 1 .08-.5c.05-.18.13-.4.23-.66l-.15-.31a.5.5 0 0 1 0-.38v-2.09c0-.87 0-1.81.08-2.79s0-1.92.07-2.82.06-1.61.12-2.12a4.12 4.12 0 0 1 .08-1V73a2.45 2.45 0 0 0-.08-.58v-1.47-1.39a.66.66 0 0 1-.23-.47 10.59 10.59 0 0 1-.16-1.85c0-.62 0-1.24.08-1.86a1.66 1.66 0 0 1 .08-.62 7.63 7.63 0 0 1-.08-1 7.77 7.77 0 0 0-.08-1.05 1 1 0 0 1 .16-.69c.15-.46.39-.7.69-.7h.39a1.66 1.66 0 0 1 .93-.62h.39a5.85 5.85 0 0 1 2.08.24 4.24 4.24 0 0 0 1.94 0 3.8 3.8 0 0 1 1.93-.16 5.18 5.18 0 0 0 2-.08 2.29 2.29 0 0 1 1 .16 3 3 0 0 1 .69.08.67.67 0 0 0 .62 0 2.31 2.31 0 0 1 1.47 0 4 4 0 0 0 1.54.15A8.12 8.12 0 0 1 39 60.8l1.08-.16c.2 0 .35-.08.42-.11a.5.5 0 0 1 .16 0 .24.24 0 0 1 .11 0 1.06 1.06 0 0 0 .39 0 2.4 2.4 0 0 1 .89-.08 2.4 2.4 0 0 0 .89-.08 5.07 5.07 0 0 1 .46.35 3 3 0 0 0 .54.35c.21.1.4.21.58.31s.35.2.51.31a2.74 2.74 0 0 1 .62.38 3.1 3.1 0 0 1 1.08.7l.07-.08a.19.19 0 0 1 .12 0 .15.15 0 0 0 .12 0 .22.22 0 0 0 .15.08q.08 0 .24.15l1 .58a5.94 5.94 0 0 1 1 .66l.92.7a2 2 0 0 1 .51.34 2.37 2.37 0 0 0 .42.35 1.82 1.82 0 0 0 .46.31 6 6 0 0 1 .86.54l2.08 1.39a16.41 16.41 0 0 1 2.17 1.39l.31.16h.38a1.84 1.84 0 0 1 1 .35c.36.23.73.49 1.12.77l1.12.81a1.77 1.77 0 0 0 1 .39 1.74 1.74 0 0 0-.15-.47 6.62 6.62 0 0 1-.27-.88 8.69 8.69 0 0 0-.27-.93A2.93 2.93 0 0 1 61 69a1.51 1.51 0 0 1-.12-.31 1.17 1.17 0 0 0-.12-.31c0-.11-.12-.31-.23-.62a.23.23 0 0 1-.07-.16.62.62 0 0 0-.08-.23.22.22 0 0 1-.08-.15.24.24 0 0 0-.08-.16.83.83 0 0 1 0-.69c0-.05 0-.21-.07-.47a3.59 3.59 0 0 1-.47-1.39 3.88 3.88 0 0 0-.5-1.51 1.6 1.6 0 0 1-.16-.77 7.86 7.86 0 0 0-.15-.93 5.31 5.31 0 0 1-.23-.89 7 7 0 0 0-.24-.89l-.15-.93c0-.31-.11-.61-.15-.92l-.47-1.86c-.05-.31-.1-.6-.15-.89a7 7 0 0 0-.24-.89.67.67 0 0 1-.07-.31.75.75 0 0 0-.08-.31H57a10.29 10.29 0 0 0-.31-1.74 10.78 10.78 0 0 0-.6-1.67 3.92 3.92 0 0 1-.47-2.33v-2.1a4.69 4.69 0 0 1 .62-2.71 4.22 4.22 0 0 1 1.54-.86 3.51 3.51 0 0 1 .93-1.7 21.14 21.14 0 0 1 3.79-2.75 26.83 26.83 0 0 0 4-2.74c.2-.2.39-.39.57-.54s.35-.31.51-.47a4 4 0 0 0 1-1.08l1.36-1.47c.43-.46.88-.93 1.35-1.39a.5.5 0 0 1 .15-.62A28.49 28.49 0 0 1 75 25.46a1 1 0 0 1 .35-.23 1.12 1.12 0 0 0 .35-.23 2.55 2.55 0 0 0 .58-1 3.84 3.84 0 0 1 .5-1.13c.36-.36.62-.54.77-.54.62-.31 1.09-.31 1.39 0a.43.43 0 0 1 .2.16.39.39 0 0 0 .19.15q.39 0 .39.12c0 .07.13.19.39.34l.3.32a7.35 7.35 0 0 1 1.86 2.16 4.41 4.41 0 0 0 1.86 1.93 5.12 5.12 0 0 1 2 1.78 6.93 6.93 0 0 0 2 1.86 1.46 1.46 0 0 1 .38.31 2.45 2.45 0 0 1 .47.77 3.28 3.28 0 0 1 .54.77c.26.37.46.57.62.62.36.26.69.52 1 .77L92 35l.93.61c.15.11-.11.23-.77.39l.34.31a3.66 3.66 0 0 1 .35.31 20.91 20.91 0 0 1 2.32 1.85c.41.42.8.78 1.16 1.09l1.08.92a11.33 11.33 0 0 0 2.32 1.24 5.37 5.37 0 0 1 2.09 1.39c.21.26.21.67 0 1.24a2.56 2.56 0 0 1 0 1.24 7.55 7.55 0 0 0-.15.93 9 9 0 0 0-.08 1.31 10.84 10.84 0 0 1-.08 1.31.45.45 0 0 0 0 .23.34.34 0 0 1 0 .16l-.08.08v1.47a4.4 4.4 0 0 1-.08.89 5.21 5.21 0 0 1-.23.88 6.18 6.18 0 0 0-.46 1.94 2 2 0 0 0-.24.93 4.47 4.47 0 0 1-.15 1 1.13 1.13 0 0 0-.19.5 3.47 3.47 0 0 1-.12.51 3.49 3.49 0 0 0-.31 1.16 1.27 1.27 0 0 0-.19.5 2.44 2.44 0 0 1-.12.5q-.15.47-.3 1.08a2.18 2.18 0 0 0-.24 1 4.71 4.71 0 0 0-.11.54c0 .15-.07.34-.12.54l-.46 2.09a1.1 1.1 0 0 1 0 .27.77.77 0 0 0 0 .27.77.77 0 0 1 0 .27.77.77 0 0 0 0 .27 1.87 1.87 0 0 0-.19.58 1.73 1.73 0 0 1-.12.43.77.77 0 0 1 0 .27 1 1 0 0 0 0 .27v.62a1.46 1.46 0 0 0-.08.54 2.64 2.64 0 0 1-.16.69v.31l-.23.23v.35c0 .23-.33.49-.33.8s-.16.58-.23.82-.09.35 0 .35a1.44 1.44 0 0 0 .77-.35c.31-.24.65-.51 1-.82l1-.81a1.44 1.44 0 0 1 .78-.35l.07-.07a4.86 4.86 0 0 0 .47-.27l.77-.51c.36-.25.71-.48 1-.69l1.13-.7 1.15-.73 1-.66a4 4 0 0 1 .78-.54 1.82 1.82 0 0 0 .46-.31l.93-.69a3.59 3.59 0 0 0 .54-.35 4.67 4.67 0 0 1 .46-.35A21.61 21.61 0 0 1 111 63l.31-.15.16-.08a.12.12 0 0 0 .11 0 .21.21 0 0 1 .12 0l.08.08a3.75 3.75 0 0 1 1-.7A1.63 1.63 0 0 0 113 62a4.4 4.4 0 0 1 .43-.23l.46-.31c.16-.1.34-.21.54-.31a3.72 3.72 0 0 0 .58-.35l.51-.35.15.16c.36 0 .53-.07.5 0s.17.06.58.11h1l1.66.12 1.66.12a4.67 4.67 0 0 1 1 .11 4.12 4.12 0 0 0 1.55-.15 2.28 2.28 0 0 1 1.46 0 .67.67 0 0 0 .62 0 3 3 0 0 1 .7-.08 2.24 2.24 0 0 1 1-.16 5.17 5.17 0 0 0 2 .08 4.43 4.43 0 0 1 1 0 4 4 0 0 1 1 .2 4.19 4.19 0 0 0 1.93 0 5.61 5.61 0 0 1 2.09-.24h.38a1.66 1.66 0 0 1 .93.62.4.4 0 0 0 .2 0h.19c.31 0 .54.24.69.7a1 1 0 0 1 .16.69 7.77 7.77 0 0 0-.08 1.05 6.31 6.31 0 0 1-.08 1 1.55 1.55 0 0 0 0 .31 1.15 1.15 0 0 1 0 .31c.05.62.08 1.24.08 1.86a10.59 10.59 0 0 1-.16 1.85.66.66 0 0 1-.23.47v2.86a2.74 2.74 0 0 0-.08 1.08 2.38 2.38 0 0 0 0 .46 4.29 4.29 0 0 1 0 .55c.05.51.09 1.26.11 2.24s0 2 .08 3.09.05 2.1.08 3.05 0 1.69 0 2.21a2.58 2.58 0 0 1-.03.66zM76.19 104.1a12 12 0 0 0 .15-3.87 5.89 5.89 0 0 0-1.08-3.47v-.08a.92.92 0 0 0-.12-.2.76.76 0 0 1-.11-.19.19.19 0 0 1-.08-.16.19.19 0 0 0-.08-.15 2.59 2.59 0 0 1-.23-.42c0-.13-.1-.25-.15-.35a1.64 1.64 0 0 1 .23-2.21v-.07-.08l.08-.08.24-.23a.87.87 0 0 0 .07-.31 1.08 1.08 0 0 1 .24-.31 6.69 6.69 0 0 0 .07-1.16v-1.27a4.15 4.15 0 0 0-.7-2.32 7.5 7.5 0 0 1-.61-.93 1.13 1.13 0 0 1-.27-.39 5.5 5.5 0 0 0-.27-.46 1.83 1.83 0 0 1-.31-.39c-.11-.15-.21-.31-.31-.46a7.26 7.26 0 0 0-.62-.93 2.06 2.06 0 0 0-1.31-.85H71a4.6 4.6 0 0 0-.78-.23 4.78 4.78 0 0 1-.77-.23 7.44 7.44 0 0 0-.73-.27c-.24-.08-.48-.17-.74-.28h-.07a9.51 9.51 0 0 0-3-.46h-.39l-.07-.08h-.08c-.47 0-.92-.09-1.36-.11s-.87-.1-1.28-.1h-1.35c-.43 0-.87-.06-1.28-.11h-1.82l-1.12.11-2.32.23a2.56 2.56 0 0 1-1.55 0 4.63 4.63 0 0 0-1.08-.15h-.93a2.77 2.77 0 0 1-1 .15 2.61 2.61 0 0 1-1 .16c-.15 0-.23.1-.23.31v.07q-.07 1.64 0 3.33v2.36a8.45 8.45 0 0 1 0 .89 5.45 5.45 0 0 1 .08.89v2.35a2.68 2.68 0 0 1 .07.62v4.57a5 5 0 0 1 .08 1.15v1.55a4.11 4.11 0 0 1 .08.77v5.57a7.57 7.57 0 0 0 0 .81 7.83 7.83 0 0 1 0 .81V109.3a.07.07 0 0 1 .08.08h3.55a12 12 0 0 0 1.7-.12l2.01-.26.85-.15a.47.47 0 0 1 .31.07h1.39a4 4 0 0 0 .75.08 3.94 3.94 0 0 1 .77.08 12.78 12.78 0 0 0 1.63.23 7.21 7.21 0 0 0 .73.11l.74.12a4 4 0 0 0 .77.08 4.13 4.13 0 0 1 .78.08 15.74 15.74 0 0 1 2.7-.24h1.24a3.68 3.68 0 0 1 .7-.07 2.55 2.55 0 0 0 .61-.08 6.68 6.68 0 0 0 2.09-.46 21.11 21.11 0 0 0 1.93-.93 1.78 1.78 0 0 0 .54-.39l.62-.62a6.32 6.32 0 0 0 1.32-2.7zM54.54 93.58a1.72 1.72 0 0 1-1.62-1.39 3.57 3.57 0 0 1 0-1.85v-1a2.25 2.25 0 0 0-.16-.81l-.15-.16.15-.07a1.06 1.06 0 0 1 0-.31 1.76 1.76 0 0 0 0-.31 2.63 2.63 0 0 1 .15-.78v-.2l.23-.08a1 1 0 0 0 .27 0 .77.77 0 0 1 .27 0h.39a.59.59 0 0 0 .23 0 .52.52 0 0 1 .24 0 .47.47 0 0 0 .23 0 .42.42 0 0 1 .15 0h1.47a6.51 6.51 0 0 0 .77 0h.78a2.72 2.72 0 0 0 .42 0 1.91 1.91 0 0 1 .43 0h1.47a1.56 1.56 0 0 1 .35 0 2.61 2.61 0 0 0 .42 0h1.24a5.35 5.35 0 0 1 .58 0 4.16 4.16 0 0 0 .66 0 6 6 0 0 0 1.15.16 3.82 3.82 0 0 1 1.24.23 2.49 2.49 0 0 1 .47 0 3.42 3.42 0 0 0 .46 0 4.55 4.55 0 0 1 1 .15 5 5 0 0 1 2.08.54v.08h.08-.08.08l.08.08h.23v.07a2.16 2.16 0 0 1 .77 1.55 4.39 4.39 0 0 1 0 1.7 2.53 2.53 0 0 1-.54.93 2.18 2.18 0 0 1-1.08.46 2.27 2.27 0 0 1-.7.16h-.62a9.1 9.1 0 0 1-.93.11h-1.74c-.29 0-.55.07-.81.12l-3.48.23a3.48 3.48 0 0 0-.57 0 5.46 5.46 0 0 1-.58 0 3.53 3.53 0 0 1-.66.07h-1.4a4.93 4.93 0 0 1-.65 0 2.52 2.52 0 0 1-.58.08 1.59 1.59 0 0 0-.5.07zm18.24 8.35c0 .16 0 .24.08.24v.15a1.6 1.6 0 0 1-.85 1.39 3.56 3.56 0 0 0-.92.7l-.08.15h-.16a4.84 4.84 0 0 1-.92.08H69a5.84 5.84 0 0 1-.93.08H65.9a12.25 12.25 0 0 0-1.31-.08h-7.27a2.28 2.28 0 0 1-.54.08.8.8 0 0 0-.39.08h-.54a2.7 2.7 0 0 1-.77-.08 2.1 2.1 0 0 1-1.16-.7h-.08v-.08a10.19 10.19 0 0 1-.23-1.27 4.41 4.41 0 0 1 .08-1.43c.05-.26.09-.49.11-.7a4.75 4.75 0 0 0 0-.69 4.21 4.21 0 0 1 0-.62 4.3 4.3 0 0 0 0-.62l.08-.08v-.07a2.48 2.48 0 0 1 2-.93h.5a2.52 2.52 0 0 0 .58-.08H59a3 3 0 0 1 .69.08H60a11.28 11.28 0 0 0 1.66-.12l1.66-.27h.08a3.41 3.41 0 0 0 1 0 1.56 1.56 0 0 1 .61-.08.62.62 0 0 0 .31.08 1.35 1.35 0 0 1 .39.08 9.63 9.63 0 0 0 1.7 0 4.26 4.26 0 0 1 2 0 2.58 2.58 0 0 1 1.63 1 4.93 4.93 0 0 0 .69.62l.62.62h.08v.08a.21.21 0 0 1 .07.15.62.62 0 0 0 .08.23 4.62 4.62 0 0 1 .08 1.09 3.15 3.15 0 0 1 .07.58zM62 48.58a1.13 1.13 0 0 1 .54.16v-1.28a12.46 12.46 0 0 0-.07-1.35v-1.39a5.62 5.62 0 0 1 .15-1.32l-.62-.15a8.78 8.78 0 0 0-.85 2zm1.7 5c.11-.26-.1-.83-.62-1.7-1.13.31-1.36 1.13-.69 2.47a5 5 0 0 0 1.27-.74zm2.09 9.12a11.63 11.63 0 0 0-1.7-6.18 7.51 7.51 0 0 0-1.7-.85 45.85 45.85 0 0 0 1.62 8c.36 1.29.68 2.6 1 3.94s.55 2.69.81 4a.29.29 0 0 0 .31.23.89.89 0 0 0 .54.16 1.91 1.91 0 0 1 0-.77v-.35a1.35 1.35 0 0 0-.08-.42 4.62 4.62 0 0 1-.19-1c0-.34-.07-.66-.12-1a4.31 4.31 0 0 0-.54-1.7 3.34 3.34 0 0 1-.23-2.09 6 6 0 0 0 .24-1.94zm13 72.84c.26 1 1.06 1.49 2.4 1.39-.16-.36-.3-.67-.43-.93s-.25-.51-.35-.77-.22-.46-.35-.77-.27-.67-.42-1.09a5.12 5.12 0 0 0-.9 2.2zm34.49-31.16v-.08V104a1.36 1.36 0 0 0-.62-.85h-.38a1.17 1.17 0 0 1-.47.08 2.12 2.12 0 0 0-.7.08v.07a6.75 6.75 0 0 1-1.85.23h-.85a1.2 1.2 0 0 1-.43.08 1.35 1.35 0 0 0-.42.08h-.08a4.18 4.18 0 0 0-.93-.08H104a4.46 4.46 0 0 1-.85.08h-.85a5.65 5.65 0 0 1-.89.08h-1.87a4.24 4.24 0 0 1-.93-.08 1.48 1.48 0 0 0-.46-.08 1.21 1.21 0 0 1-.46-.08 4.31 4.31 0 0 1-.93-.15h-.08a1.36 1.36 0 0 0-.62-.23.67.67 0 0 0-.62 0 1.5 1.5 0 0 1-1.08-.31l-.31-.15a2 2 0 0 0-.38-.16 1 1 0 0 1-.86-.46 1.15 1.15 0 0 1-.15-.2 2.23 2.23 0 0 0-.23-.27 4.2 4.2 0 0 1-.39-.27l-.31-.27a2.78 2.78 0 0 0-.54-.46 5.78 5.78 0 0 1-1.78-5 .41.41 0 0 1 .08-.31V95l.23-.93a1.81 1.81 0 0 0 .07-.54.21.21 0 0 0 .08-.16.62.62 0 0 1 .08-.23 1.23 1.23 0 0 1 .39-.7.45.45 0 0 1 .15-.19 1.29 1.29 0 0 0 .23-.19 1.66 1.66 0 0 1 .47-.31 5.1 5.1 0 0 0 .42-.31 3.66 3.66 0 0 0 .35-.31l.39-.39c.05-.15.1-.23.15-.23v-.08A3.68 3.68 0 0 1 92 90c-.1-.11-.18-.16-.23-.16l-.47-.23.39-.31a.3.3 0 0 1 .31-.2c.1-.1.18-.16.23-.16s.13-.23.23-.23.13 0 .24-.15l.3-.16.16.23a2 2 0 0 0 .39.47.39.39 0 0 0 .15.19.37.37 0 0 1 .15.2c.11-.11.18-.16.24-.16h.08c.15-.15.23-.2.23-.15v-.31s-.08-.05-.08-.16a1.06 1.06 0 0 1-.15-.38.22.22 0 0 1-.08-.16V88l.77-.62-.23-.23h.54l.23-.24V87l.31-.15.47-.54.23-.24.23.24c0 .15.1.23.15.23V86.77l.08.15.15.16h.16l.07.07c.11 0 .16 0 .16-.07a1.54 1.54 0 0 1 1-.55c.21 0 .31-.12.31-.38v-.16H99a1.82 1.82 0 0 1 .62-.15h.38a2.39 2.39 0 0 0 .51 0 2.23 2.23 0 0 1 .34 0h.08a3 3 0 0 0 1.08-.23h1.32a.47.47 0 0 1 .23 0 .47.47 0 0 0 .23 0 1.45 1.45 0 0 1 .39.15 2.45 2.45 0 0 0 .62.23.28.28 0 0 0 .23.08h.08l.08-.08a1.59 1.59 0 0 1 .69-.61 5.16 5.16 0 0 1 .73-.24 3.57 3.57 0 0 1 .74-.07 2.5 2.5 0 0 0 .35 0 1.5 1.5 0 0 1 .35 0h1.39a1.42 1.42 0 0 1 .34 0 2.5 2.5 0 0 0 .35 0h.93a2.24 2.24 0 0 1 1.55.77l.23.23a.68.68 0 0 0 .23.39l.08.07v-.23a.12.12 0 0 0 0-.11V85.76a.77.77 0 0 0 0-.27 1 1 0 0 1 0-.27v-.08a1 1 0 0 1-.23-.62 1.82 1.82 0 0 1-.23-.77 6.4 6.4 0 0 1 .23-3 1.46 1.46 0 0 0-.15-1.09 1.9 1.9 0 0 1-.85.24 3 3 0 0 1-.43.11 1.87 1.87 0 0 1-.42 0 2.49 2.49 0 0 0-.47 0 2.38 2.38 0 0 1-.46 0 1.91 1.91 0 0 0-.43 0 2.72 2.72 0 0 1-.42 0 7.74 7.74 0 0 1-2.63 0 11.41 11.41 0 0 0-2.32.23l-.08.07H104a10.7 10.7 0 0 0-2.93-.07 12.93 12.93 0 0 1-3-.31q-.54.23-1.08.42c-.36.13-.72.25-1.08.35s-.8.3-1.16.42a11.3 11.3 0 0 1-1.08.35c-.73.31-1.43.65-2.09 1A11 11 0 0 0 89.72 84l-.47.31a10.92 10.92 0 0 0-4.09 4.56 6.86 6.86 0 0 0-.78 2.13 5 5 0 0 0-.19 1c0 .31-.07.62-.11.93v3.19c0 .39.07.78.12 1.2a29 29 0 0 0 1.16 3.48c.2.51.43 1 .65 1.54a12.15 12.15 0 0 0 .9 1.62 1.56 1.56 0 0 0 .62.7l.3.31.31.31c.16.15.44.38.85.7l.47.31a2.52 2.52 0 0 1 .38.3 4 4 0 0 1 .47.39 4 4 0 0 0 .46.39l.78.77a1.75 1.75 0 0 0 .62.62.39.39 0 0 0 .15.11.79.79 0 0 1 .15.12.43.43 0 0 1 .31.15 1.34 1.34 0 0 0 .93 0 2.24 2.24 0 0 1 1.32.31l.07.08.47-.15.08-.08h.38a1.08 1.08 0 0 1 .46-.08 1.1 1.1 0 0 1 .85.47l1 .23a1.59 1.59 0 0 0 .5.08 1.59 1.59 0 0 1 .5.07 2 2 0 0 0 .55.08 2.43 2.43 0 0 1 .54.08c.2.05.56.13 1.08.23a2.42 2.42 0 0 0 .85 0 1.91 1.91 0 0 1 1.24.08.6.6 0 0 0 .38-.08 4.82 4.82 0 0 1 .78-.15c.25-.06.49-.09.69-.12a3.81 3.81 0 0 1 .54 0h.63a1.32 1.32 0 0 1 .54-.08l.15-.07.08.07a1.27 1.27 0 0 1 .23.16.91.91 0 0 0 .23.15l.31.16a3.54 3.54 0 0 0 1-.08 2.54 2.54 0 0 1 1.39.08h.08l.07-.08a1.25 1.25 0 0 1 1.16-.31 2.42 2.42 0 0 1 1.08.31l.08-.08.08-1.24V109a4.75 4.75 0 0 1 0-.69v-3.87zm-23-12.84a1 1 0 0 1-.31.7 3.65 3.65 0 0 1-.3.27 2.22 2.22 0 0 0-.24.19v.3h-.33a.43.43 0 0 1-.31.16.45.45 0 0 1-.31-.16l-.23-.23.39-.39h.07a1.53 1.53 0 0 1 .08-.69 1 1 0 0 1 .46-.7l-.25-.35.47.16.08-.08a.41.41 0 0 1 .46-.38h.15a.21.21 0 0 1 .12 0h.12l.15.16v.5c0 .31-.08.49-.23.54s-.08 0-.08 0-.01.03-.06.03zm31-8.5a1.37 1.37 0 0 0 .15-1.24 1.23 1.23 0 0 0-.61-.62 1.17 1.17 0 0 1-.62-.62c-1.5.31-2.09.8-1.78 1.47a3.22 3.22 0 0 0 2 1.55c.28.19.58.01.77-.51z"/><path class="cls-3" d="M0 0h504.83v163.12H0z"/></g></g></svg>