<?xml version="1.0" encoding="utf-8"?>
<!-- Generator: Adobe Illustrator 25.1.0, SVG Export Plug-In . SVG Version: 6.00 Build 0)  -->
<svg version="1.2" baseProfile="tiny" id="Artwork" xmlns="http://www.w3.org/2000/svg" xmlns:xlink="http://www.w3.org/1999/xlink"
	 x="0px" y="0px" viewBox="0 0 261.4 70.76" overflow="visible" xml:space="preserve">
<g>
	<g>
		<path fill="#7A1600" d="M28.46,44.44c-0.01-0.05-7.91-4.89-9.15-5.68c-1.38-0.88-2.58-1.64-3.46-2.06
			c-2.92-1.38-4.38-1.35-5.44-1.33c-0.48,0.01-0.87,0.02-1.26-0.11c0.35,0.49,1.79,2.49,3.12,4.07c1.34,0.2,3.93,0.15,3.95,0.16
			l0.02,0.08c-1.16,0.39-2.32,0.54-3.39,0.44c0.57,0.64,1.02,1.07,1.34,1.28c0.19,0.12,0.37,0.28,0.54,0.48
			c1.77,0.11,4.5,0.03,4.53,0.03l0.01,0.08c-1.4,0.39-2.81,0.57-4.09,0.52c0.05,0.08,1.49,0.75,1.64,0.83
			C19.92,44.74,28.5,44.68,28.46,44.44z"/>
		<path fill="#7A1600" d="M37.34,35.5c1.09-12.85,1.61-17.17,1.61-17.17l1.32,14.87c1.43-2.7,2.76-4.51,3.12-4.86
			c0.72-0.69,2.55-2.59,3.58-3.68L39.36,6.41l-0.1-0.25l1.82-4.65L40.6,1.33l-1.37,3.48V0h-0.52v4.75l-1.26-3.42l-0.48,0.19
			l1.72,4.61l-7.6,19.25c1.6,1.69,3.13,3.61,4.04,5.51C35.79,32.28,36.6,33.99,37.34,35.5z"/>
		<polygon fill="#7A1600" points="36.89,70.76 40.99,70.76 38.95,65.22 		"/>
		<path fill="none" d="M6.05,59.57c0,0,2.04,0.16,4.84,0.08C8.72,59.66,6.67,59.59,6.05,59.57z"/>
		<path fill="none" d="M53.87,42.21c0.09-0.26,0.18-0.5,0.26-0.72c-0.13,0.06-0.27,0.11-0.4,0.17C53.77,42,53.87,42.21,53.87,42.21z
			"/>
		<path fill="#7A1600" d="M38.04,39.15c-0.8-1.34-2.2-4.25-3.88-7.8c-2.31-4.86-9.18-10.04-9.65-10.5
			c-0.47-0.46-1.37-1.92-1.37-1.92c-0.46-0.45-0.6,0.1-0.66,0.75c-0.07,0.64-0.56,6.58-0.56,6.58c-0.84,6.72,1.64,11.12,1.64,11.12
			c1.73,3.34,4.13,5.47,6.46,7.01C31.58,41.47,34.56,39.42,38.04,39.15z M25.41,33.08c-0.26-0.4-0.98-1.85-1.25-2.76
			c-0.4-1.37-0.9-3.5-0.87-5.61c0.03-2.16,0.15-3.36,0.23-3.67l0.3,0.37c0,0,0.01,0.01,0.01,0.01h0c0.5,0.48,1.73,1.6,3.63,3.21
			c2.86,2.42,5.31,6.04,6.3,8.25c0.98,2.21,2.76,6.1-0.29,0.21c-3.05-5.9-6.84-8.79-8.01-9.75c-0.41-0.34-1.34-1.11-1.68-1.41
			c-0.05,0.79-0.08,2.01,0.07,3.46l1.91-0.43c0.41,0.23,0.63,0.49,0.63,0.49c0.01,0-1.76,0.49-2.46,0.68
			c0.17,1.26,0.49,2.66,1.02,4.1l4.24-1.12c0.15,0.15,0.24,0.25,0.34,0.44l-4.23,1.53c0.35,0.81,0.77,1.62,1.28,2.43
			c0.45,0.71,2.09,2.67,4.51,4.14c1.82,1.11,4.68,2.02,2.15,1.34C30.8,38.34,27.78,36.75,25.41,33.08z"/>
		<path fill="#7A1600" d="M38.85,39.14c1.52,0,2.95,0.34,4.24,0.95c0,0,0-0.01,0-0.01c0.5-2.15,1.26-3.76,1.53-4.14
			c0.85-1.22,3.85-3.08,3.96-3.19l-0.01,0.12c-0.57,0.54-2.71,2.58-3.42,3.58c-0.18,0.26-1.01,2.2-1.54,3.88
			c0,0.01,0,0.01-0.01,0.02c0.64,0.35,1.23,0.76,1.78,1.23c0,0,0.01,0,0.01,0c0.42-0.32,0.96-0.79,1.73-1.49
			c0.31-0.44,1.31-1.73,1.52-2.34c0.22-0.65,0.38-1.3,0.48-1.86c0.08,0.49,0.11,1.09,0.01,1.81c-0.02,0.17-0.95,1.92-1.5,2.63
			c-0.77,0.73-1.39,1.22-1.87,1.58c0,0-0.01,0-0.01,0.01c0.31,0.3,0.61,0.62,0.89,0.97c0.17,0.25,0.29,0.43,0.38,0.55
			c0.01-0.01,0.02-0.01,0.03-0.02c0.14-0.1,0.28-0.2,0.42-0.3c1.41-1.13,2.94-2.12,4.12-2.84c0.34-0.55,0.61-1.25,0.88-2.02
			c1.2-3.4,1.42-6.15,1.94-7.64c0.85-2.41,0.59-9.38,0.67-10.08c0.05-0.46-0.12-1.18-0.46-1.13c-0.21,0.03-0.48,0.62-0.71,1.01
			c-0.61,1.06-2.27,4.46-2.21,6.17c0.02,0.64,0.17,2.22,0.17,2.22s-0.72-1.37-0.82-2.2c-0.2-1.68,1.91-5.6,2.26-6.14
			c0.73-1.13,0.66-1.18,0.66-1.18s0.11-0.3-0.72,0.24c-0.82,0.54-2.77,2.75-3.24,3.27c-0.47,0.51-1.3,1.58-1.48,1.79
			c-0.17,0.21-3.38,3.56-4.39,4.53c-0.54,0.52-3.23,4.41-5.16,9.54c-0.06,0.15-0.11,0.31-0.17,0.46c0,0.01-0.01,0.02-0.01,0.03
			C38.82,39.14,38.84,39.14,38.85,39.14z"/>
		<path fill="#FFFFFF" d="M62.05,41.86c0.16-0.16,0.31-0.32,0.46-0.47c-0.55,0.19-0.99,0.28-0.99,0.29
			C61.66,41.79,61.84,41.85,62.05,41.86z"/>
		<path fill="#7A1600" d="M66.9,35.38c-1.46,0.25-4.05,0.74-4.96,1.24c-1.14,0.47-2.47,2.64-2.47,2.61
			c-0.01-0.85,0.81-1.99,0.81-1.99s-0.24,0.07-0.61,0.19c-0.14,0.04-0.29,0.09-0.46,0.15c-1.28,0.42-3.3,1.14-3.82,1.67
			c-0.33,0.33-0.75,0.91-1.27,2.26c-0.09,0.22-0.17,0.45-0.26,0.72c0,0-0.09-0.21-0.14-0.55c-0.05-0.4-0.03-0.98,0.33-1.62
			c0,0-0.05,0.03-0.16,0.08c-0.13,0.07-0.33,0.18-0.59,0.32c-3.67,2.09-5.55,3.82-5.49,3.81c2.06-0.45,4.84-0.75,7.06-0.82
			c0.5-0.31,1.32-0.85,1.87-1.19c1.71-1.03,3.54-2.11,4.82-2.77c0,0-1.58,1.21-3.6,2.78c-0.39,0.3-1.04,0.83-1.45,1.15
			c1.8,0,3.62,0.03,5.21,0.13c0.58-0.58,1.4-1.43,1.89-1.96c0,0-0.91,0.34-1.58,0.28c-0.21-0.02-0.4-0.07-0.53-0.19
			c-0.01-0.01,0.43-0.09,0.99-0.29c0.61-0.21,1.35-0.54,1.79-1.03c0.01-0.01,1.66-1.53,3.63-5.15
			C67.94,35.21,67.52,35.27,66.9,35.38z"/>
		<path fill="#7A1600" d="M22.43,57.37c2.3-1.08,4.16-2.16,5.32-2.88c0.31-0.22,1.02-0.66,1.88-1.18c-0.47-1.17-0.8-2.86-0.8-4.19
			c0-1.46,0.32-2.83,0.88-4.08c-5.59,0.75-10.83,0.01-13.15-0.79c-0.95-0.33-5.59-2.52-8.06-2.11c-1.71,0.29-2.33,1.51-2.33,1.51
			c-2.67-0.85-4.81-0.77-5.43,0.52c-1.12,2.35-0.62,3.21-0.62,3.21c3.5-3.06,5.72-0.61,6.03-0.51c-3.78-1.22-4.49,0.17-4.49,0.17
			c4.92,1.08,9.41,3.66,11.35,4.9c5.16-2.98,11.21-4.06,11.21-4.06c-4.22,1.27-8.74,3.83-10.59,4.94c-5.93,3.69-7.57,6.77-7.57,6.77
			c0.62,0.02,2.67,0.09,4.84,0.08c0.69-0.02,1.42-0.06,2.19-0.11c1.33-1.29,3.36-4.02,3.38-4.05l0.1,0.05
			c-0.53,1.52-1.3,2.85-2.25,3.89c1.12-0.11,2.27-0.27,3.4-0.5c1.58-1.81,3.72-4.76,3.75-4.79l0.1,0.05
			C20.88,55.86,20,57.37,19,58.64c0.17-0.04,0.76-0.17,1.64-0.45C20.64,58.18,21.95,57.62,22.43,57.37z"/>
		<path fill="#7A1600" d="M76.72,42.01c-0.55-0.05-1.45,0.16-2.06,0.38c-0.74,0.26-1.18,0.2-1.89,0.12l-0.41-0.05c0,0,0,0,0,0
			c-0.55-0.05-1.01,0.05-1.7,0.19c-0.61,0.13-1.45,0.3-2.66,0.44c-0.02-0.01-0.15,0.05-0.55,0.01c-0.77-0.07-1.38,0.04-1.53,0.3
			c-0.16,0.27,0.01,0.46,0.01,0.46L66,43.96L65.88,44c-0.02,0.01-1.93,0.68-3.5,0.57c-4.13-0.3-9.32-0.47-14.37,0.55
			c0.41,0.95,0.67,1.97,0.78,3.04c9.48,0.72,15.39,4.87,17.64,6.47c0.19-0.1,0.4-0.56-0.08-1.23c-0.59-0.83-1.65-1.31-1.65-1.31
			s0.33-2.5-3.01-4.93l-0.38-0.28c0.3,0.07,0.53,0.14,0.62,0.19c3.91,2.29,3.3,4.89,3.54,4.85c1.16-0.19,3.59-0.57,4.99-1.62
			c1.23-0.92,1.97-1.73,2.76-2.59c0.48-0.53,0.99-1.08,1.62-1.66c0.41-0.38,0.8-0.67,1.12-0.91c0.41-0.3,0.7-0.52,0.76-0.72
			c0.03-0.1,0.07-0.21,0.12-0.34c0.15-0.4,0.36-0.96,0.36-1.76C77.17,42.24,77.17,42.05,76.72,42.01z"/>
		<path fill="#7A1600" d="M46.71,48.09c0.39,0,0.78,0.01,1.16,0.02c-0.1-0.92-0.33-1.81-0.69-2.63c-0.24-0.55-0.53-1.07-0.87-1.56
			c-0.01,0.01-0.02,0.01-0.03,0.02c-0.08-0.11-0.19-0.26-0.34-0.5c-0.25-0.31-0.52-0.61-0.81-0.88c0,0,0,0,0.01,0
			c-0.11-0.11-0.22-0.21-0.34-0.31c0,0,0,0-0.01,0.01c-0.5-0.43-1.04-0.81-1.62-1.12c0,0,0-0.01,0-0.02
			c-0.15-0.08-0.31-0.15-0.47-0.23c0,0,0,0.01,0,0.01c-1.17-0.55-2.48-0.86-3.86-0.86c-0.02,0-0.03,0-0.04,0
			c0-0.01,0-0.02,0.01-0.02c-0.24,0-0.47,0.02-0.7,0.04c-3.17,0.25-5.88,2.11-7.31,4.78c-0.1,0.19-0.19,0.38-0.28,0.58
			c-0.51,1.13-0.8,2.39-0.8,3.71c0,1.23,0.25,2.4,0.69,3.47c0.01,0.01,0.02,0.03,0.02,0.05c0.02,0.06,0.05,0.1,0.07,0.15
			c1.52-0.89,3.22-1.84,3.99-2.17C38.45,48.94,42.56,48.09,46.71,48.09z"/>
		<path fill="#7A1600" d="M61.79,59.51c0.27,0.34,2.8-0.56,4.87,0.69c0,0-2.09-3.08-5.77-4.63c-0.89,0.05-1.74,0.11-2.48,0.19
			C60.67,57.01,61.56,58.92,61.79,59.51z"/>
		<path fill="#7A1600" d="M56.48,59.66c0.25,0.38,2.31-0.64,4.37,0.6c0,0-1.92-3.05-5.74-3.92c-0.98,0.28-1.62,0.57-2.01,0.78
			C54.87,57.48,56.27,59.34,56.48,59.66z"/>
		<path fill="#7A1600" d="M65.41,54.89c-3.46-2.42-15.8-9.78-30.59-3.5c-1.3,0.55-5.71,3.15-6.63,3.81c-1.28,0.8-3.12,1.85-5.34,2.9
			c-0.05,0.02-0.51,0.24-0.6,0.28c0,0,2.9,1.08,13.61-2.59c0,0,2.35-1.03,6.21-1.26c0.25,0,0.5,0.01,0.76,0.02
			c3.16,0.15,6.25,0.95,8.75,1.95c0.13,0.05,0.25,0.1,0.34,0.15C56.4,54.75,62.52,54.76,65.41,54.89z"/>
		<path fill="#7A1600" d="M41.42,55.58c-2.65,0.15-4.56,0.68-5.52,1c-0.04,0.07,0.15,2.09-0.94,3.12c-0.38,0.3-1,0.54-1.18,0.59
			c-0.33,0.09-0.34,0.05-0.78,0.19c-1.73,0.57-3.95,1.47-4.75,2.53c-1.05,1.4-1.04,2.42-1.03,3.61l0,0.42c0,0,2.01-1.55,5.59-1.6
			c3.03-0.04,5.4-0.83,6.13-2.21c0.41,0.76,1.42,1.98,3.2,2.09c5.68,0.34,8.34,1.72,8.34,1.72l0-0.42c0.01-1.19,0.03-2.21-1.03-3.61
			c-1.29-1.72-6.38-3.01-6.43-3.03c-0.62-0.15-0.92-0.53-1.3-1l-0.13-0.17c-0.37-0.43,0.07-1.9,1.05-3.18
			c-0.17-0.01-0.33-0.03-0.5-0.04C41.92,55.59,41.67,55.59,41.42,55.58z"/>
		<path fill="#7A1600" d="M66.38,55.61c-0.01,0-0.05-0.04-0.12-0.09c-0.7-0.04-1.48-0.05-2.3-0.04c1.18,0.74,2.68,2.13,3.38,3.96
			c0.32,0.51,1.94-0.24,4.69,0.52C72.04,59.95,68.93,57.48,66.38,55.61z"/>
	</g>
	<g>
		<path d="M85.38,26.9h3.8v19.06h-3.8V26.9z"/>
		<path d="M94.24,45.95V26.91h1.27l11.93,11.93V26.91h3.81v19.04h-1.4L98.05,34.15v11.81H94.24z"/>
		<path d="M115.88,45.95V26.9h7.34c5.92,0,8.89,3.18,8.89,9.53c0,6.35-2.96,9.52-8.89,9.52H115.88z M123.22,42.16
			c3.38-0.01,5.07-1.92,5.08-5.73c-0.01-3.81-1.7-5.71-5.08-5.71h-3.53v11.44H123.22z"/>
		<path d="M136.22,26.9h3.8v19.06h-3.8V26.9z"/>
		<path d="M146.38,43.22c-1.82-1.82-2.74-4.09-2.74-6.82c0.01-2.67,0.92-4.92,2.74-6.75c1.82-1.82,4.08-2.74,6.77-2.74
			c2.72,0,5.05,0.85,7,2.54l-2.54,2.78c-1.29-1.02-2.78-1.52-4.46-1.52c-1.71,0.01-3.09,0.54-4.13,1.6
			c-1.05,1.06-1.57,2.41-1.57,4.06c0.01,1.77,0.54,3.17,1.59,4.21c1.05,1.04,2.43,1.56,4.14,1.56c1.37,0,2.42-0.27,3.16-0.81v-3.26
			l-2.54,0.01v-3.55h6.35v8.89c-1.94,1.69-4.27,2.54-7,2.54C150.46,45.95,148.2,45.03,146.38,43.22z"/>
		<path d="M164.97,45.95V26.92l13.99-0.01v3.55h-10.18v4.06h7.63v3.54h-7.63v4.33h10.16v3.55H164.97z"/>
		<path d="M183.29,45.95V26.91h1.27l11.93,11.93V26.91h3.81v19.04h-1.4l-11.81-11.81v11.81H183.29z"/>
		<path d="M207.05,43.22c-1.82-1.82-2.73-4.09-2.73-6.79c0-2.71,0.91-4.97,2.73-6.79c1.82-1.82,4.08-2.73,6.79-2.73
			c2.71,0,4.97,0.91,6.79,2.73c1.82,1.82,2.73,4.08,2.73,6.79s-0.91,4.97-2.73,6.79c-1.82,1.82-4.08,2.73-6.79,2.73
			C211.13,45.95,208.87,45.04,207.05,43.22z M213.86,42.4c1.68,0,3.05-0.57,4.11-1.71c1.06-1.14,1.59-2.56,1.59-4.25
			s-0.53-3.11-1.59-4.25c-1.06-1.14-2.44-1.71-4.14-1.71c-1.68,0-3.06,0.57-4.11,1.71c-1.06,1.14-1.59,2.56-1.59,4.25
			s0.53,3.11,1.59,4.25C210.77,41.83,212.15,42.4,213.86,42.4z"/>
		<path d="M230.75,26.91v11.04c0,1.44,0.42,2.5,1.27,3.17c0.85,0.68,1.9,1.02,3.17,1.02s2.33-0.34,3.17-1.02
			c0.85-0.68,1.27-1.74,1.27-3.17V26.91h3.81v12.06c0,1.95-0.78,3.6-2.35,4.95c-1.57,1.35-3.53,2.03-5.9,2.03
			c-2.37,0-4.34-0.68-5.9-2.03c-1.57-1.35-2.35-3-2.35-4.95V26.91H230.75z"/>
		<path d="M258.41,27.55c0.97,0.42,1.88,1.06,2.73,1.9l-2.54,2.54c-0.85-1.02-2.03-1.52-3.55-1.52c-1.52,0-2.5,0.36-2.92,1.08
			c-0.42,0.72-0.42,1.33,0,1.84c0.42,0.51,1.4,0.89,2.92,1.14c1.61,0.17,3.07,0.7,4.38,1.59c1.31,0.89,1.97,2.31,1.97,4.25
			c0,1.52-0.7,2.83-2.1,3.94c-1.4,1.1-3.03,1.65-4.89,1.65c-1.77,0-3.25-0.25-4.43-0.76c-1.19-0.51-2.2-1.18-3.05-2.03l2.54-2.54
			c0.85,1.02,2.29,1.61,4.32,1.78c1.69,0,2.75-0.36,3.17-1.08s0.42-1.44,0-2.16s-1.47-1.16-3.17-1.33c-1.52-0.17-2.92-0.63-4.19-1.4
			s-1.9-2.07-1.9-3.94c0-1.68,0.72-3.04,2.16-4.06c1.44-1.02,2.93-1.53,4.45-1.53C256.07,26.91,257.44,27.12,258.41,27.55z"/>
	</g>
	<g>
		<path fill="#7A1600" d="M91.1,53.05v1.23h-2.2v5.36h-1.32v-5.36h-2.2v-1.23H91.1z"/>
		<path fill="#7A1600" d="M92.38,58.69c-0.63-0.63-0.94-1.41-0.94-2.35c0-0.94,0.31-1.72,0.94-2.35s1.41-0.95,2.35-0.95
			s1.72,0.32,2.35,0.95s0.95,1.41,0.95,2.35s-0.32,1.72-0.95,2.35s-1.41,0.94-2.35,0.94S93.01,59.32,92.38,58.69z M94.74,58.41
			c0.58,0,1.06-0.2,1.42-0.59s0.55-0.89,0.55-1.47s-0.18-1.08-0.55-1.47s-0.84-0.59-1.43-0.59c-0.58,0-1.06,0.2-1.42,0.59
			s-0.55,0.89-0.55,1.47s0.18,1.08,0.55,1.47S94.15,58.41,94.74,58.41z"/>
		<path fill="#7A1600" d="M100.37,53.05v3.82c0,0.5,0.15,0.86,0.44,1.1s0.66,0.35,1.1,0.35s0.81-0.12,1.1-0.35s0.44-0.6,0.44-1.1
			v-3.82h1.32v4.17c0,0.67-0.27,1.25-0.81,1.71s-1.22,0.7-2.04,0.7s-1.5-0.23-2.04-0.7s-0.81-1.04-0.81-1.71v-4.17H100.37z"/>
		<path fill="#7A1600" d="M110.06,56.77l1.64,2.87h-1.51l-1.58-2.72h-1.2v2.72h-1.32v-6.59h2.87c1.54,0,2.31,0.63,2.31,1.9
			C111.27,55.9,110.87,56.51,110.06,56.77z M107.41,55.69h1.85c0.53-0.01,0.8-0.25,0.82-0.72c-0.01-0.43-0.28-0.66-0.8-0.68h-1.86
			V55.69z"/>
		<path fill="#7A1600" d="M112.73,53.04h1.31v6.6h-1.31V53.04z"/>
		<path fill="#7A1600" d="M119.08,53.27c0.34,0.15,0.65,0.37,0.95,0.66l-0.88,0.88c-0.29-0.35-0.7-0.53-1.23-0.53
			s-0.86,0.12-1.01,0.37s-0.15,0.46,0,0.64s0.48,0.31,1.01,0.4c0.56,0.06,1.06,0.24,1.52,0.55s0.68,0.8,0.68,1.47
			c0,0.53-0.24,0.98-0.73,1.36c-0.49,0.38-1.05,0.57-1.69,0.57c-0.61,0-1.12-0.09-1.53-0.26s-0.76-0.41-1.05-0.7l0.88-0.88
			c0.29,0.35,0.79,0.56,1.49,0.62c0.59,0,0.95-0.12,1.1-0.37c0.14-0.25,0.14-0.5,0-0.75c-0.15-0.25-0.51-0.4-1.1-0.46
			c-0.53-0.06-1.01-0.22-1.45-0.48s-0.66-0.72-0.66-1.36c0-0.58,0.25-1.05,0.75-1.4c0.5-0.35,1.01-0.53,1.54-0.53
			C118.27,53.05,118.74,53.12,119.08,53.27z"/>
		<path fill="#7A1600" d="M121.33,59.64v-6.59h0.44l2.86,3.25l2.86-3.25h0.44v6.59h-1.32l0-3.82l-1.98,2.2l-1.98-2.2v3.82H121.33z"
			/>
		<path fill="#7A1600" d="M132.25,59.64l2.64-6.59h1.32l2.63,6.59l-1.4,0l-0.4-1.01h-2.99l-0.4,1.01H132.25z M135.59,54.81l-1,2.5
			h1.98L135.59,54.81z"/>
		<path fill="#7A1600" d="M143.5,53.27c0.34,0.15,0.65,0.37,0.95,0.66l-0.88,0.88c-0.29-0.35-0.7-0.53-1.23-0.53
			s-0.86,0.12-1.01,0.37s-0.15,0.46,0,0.64s0.48,0.31,1.01,0.4c0.56,0.06,1.06,0.24,1.52,0.55s0.68,0.8,0.68,1.47
			c0,0.53-0.24,0.98-0.73,1.36c-0.49,0.38-1.05,0.57-1.69,0.57c-0.61,0-1.12-0.09-1.53-0.26s-0.76-0.41-1.05-0.7l0.88-0.88
			c0.29,0.35,0.79,0.56,1.49,0.62c0.59,0,0.95-0.12,1.1-0.37c0.14-0.25,0.14-0.5,0-0.75c-0.15-0.25-0.51-0.4-1.1-0.46
			c-0.53-0.06-1.01-0.22-1.45-0.48s-0.66-0.72-0.66-1.36c0-0.58,0.25-1.05,0.75-1.4c0.5-0.35,1.01-0.53,1.54-0.53
			C142.69,53.05,143.17,53.12,143.5,53.27z"/>
		<path fill="#7A1600" d="M149.43,53.27c0.34,0.15,0.65,0.37,0.94,0.66l-0.88,0.88c-0.29-0.35-0.7-0.53-1.23-0.53
			s-0.86,0.12-1.01,0.37s-0.15,0.46,0,0.64s0.48,0.31,1.01,0.4c0.56,0.06,1.06,0.24,1.52,0.55s0.68,0.8,0.68,1.47
			c0,0.53-0.24,0.98-0.73,1.36c-0.48,0.38-1.05,0.57-1.69,0.57c-0.61,0-1.12-0.09-1.53-0.26s-0.76-0.41-1.05-0.7l0.88-0.88
			c0.29,0.35,0.79,0.56,1.49,0.62c0.59,0,0.95-0.12,1.1-0.37c0.14-0.25,0.14-0.5,0-0.75c-0.15-0.25-0.51-0.4-1.1-0.46
			c-0.53-0.06-1.01-0.22-1.45-0.48s-0.66-0.72-0.66-1.36c0-0.58,0.25-1.05,0.75-1.4c0.5-0.35,1.01-0.53,1.54-0.53
			C148.61,53.05,149.09,53.12,149.43,53.27z"/>
		<path fill="#7A1600" d="M152.39,58.69c-0.63-0.63-0.94-1.41-0.94-2.35c0-0.94,0.31-1.72,0.94-2.35s1.41-0.95,2.35-0.95
			s1.72,0.32,2.35,0.95s0.95,1.41,0.95,2.35s-0.32,1.72-0.95,2.35s-1.41,0.94-2.35,0.94S153.02,59.32,152.39,58.69z M154.75,58.41
			c0.58,0,1.06-0.2,1.42-0.59s0.55-0.89,0.55-1.47s-0.18-1.08-0.55-1.47s-0.84-0.59-1.43-0.59c-0.58,0-1.06,0.2-1.42,0.59
			s-0.55,0.89-0.55,1.47s0.18,1.08,0.55,1.47S154.16,58.41,154.75,58.41z"/>
		<path fill="#7A1600" d="M159.78,58.69c-0.63-0.63-0.95-1.42-0.95-2.36c0-0.93,0.32-1.7,0.95-2.34c0.63-0.63,1.41-0.95,2.34-0.95
			c0.94,0,1.75,0.29,2.42,0.88l-0.88,0.96c-0.45-0.35-0.96-0.53-1.54-0.53c-0.59,0-1.07,0.19-1.43,0.55
			c-0.36,0.37-0.54,0.83-0.54,1.41c0,0.61,0.19,1.1,0.55,1.46s0.84,0.54,1.43,0.54s1.1-0.17,1.53-0.52l0.88,0.96
			c-0.67,0.59-1.48,0.88-2.42,0.88C161.2,59.64,160.41,59.32,159.78,58.69z"/>
		<path fill="#7A1600" d="M165.84,53.04h1.31v6.6h-1.31V53.04z"/>
		<path fill="#7A1600" d="M168.28,59.64l2.64-6.59h1.32l2.63,6.59l-1.4,0l-0.4-1.01h-2.99l-0.4,1.01H168.28z M171.61,54.81l-1,2.5
			h1.98L171.61,54.81z"/>
		<path fill="#7A1600" d="M180.29,53.05v1.23h-2.2v5.36h-1.32v-5.36h-2.2v-1.23H180.29z"/>
		<path fill="#7A1600" d="M181.41,53.04h1.31v6.6h-1.31V53.04z"/>
		<path fill="#7A1600" d="M184.81,58.69c-0.63-0.63-0.94-1.41-0.94-2.35c0-0.94,0.31-1.72,0.94-2.35s1.41-0.95,2.35-0.95
			s1.72,0.32,2.35,0.95s0.95,1.41,0.95,2.35s-0.32,1.72-0.95,2.35s-1.41,0.94-2.35,0.94S185.44,59.32,184.81,58.69z M187.16,58.41
			c0.58,0,1.06-0.2,1.42-0.59s0.55-0.89,0.55-1.47s-0.18-1.08-0.55-1.47s-0.84-0.59-1.43-0.59c-0.58,0-1.06,0.2-1.42,0.59
			s-0.55,0.89-0.55,1.47s0.18,1.08,0.55,1.47S186.57,58.41,187.16,58.41z"/>
		<path fill="#7A1600" d="M191.49,59.64v-6.59h0.44l4.13,4.13v-4.13h1.32v6.59h-0.48l-4.09-4.09v4.09H191.49z"/>
		<path fill="#7A1600" d="M202.72,58.69c-0.63-0.63-0.94-1.41-0.94-2.35c0-0.94,0.31-1.72,0.94-2.35s1.41-0.95,2.35-0.95
			s1.72,0.32,2.35,0.95s0.95,1.41,0.95,2.35s-0.32,1.72-0.95,2.35s-1.41,0.94-2.35,0.94S203.35,59.32,202.72,58.69z M205.07,58.41
			c0.58,0,1.06-0.2,1.42-0.59s0.55-0.89,0.55-1.47s-0.18-1.08-0.55-1.47s-0.84-0.59-1.43-0.59c-0.58,0-1.06,0.2-1.42,0.59
			s-0.55,0.89-0.55,1.47s0.18,1.08,0.55,1.47S204.48,58.41,205.07,58.41z"/>
		<path fill="#7A1600" d="M209.48,59.64v-6.59h4.64v1.23h-3.32v1.41h2.45v1.23h-2.45v2.73H209.48z"/>
		<path fill="#7A1600" d="M219.06,58.69c-0.63-0.63-0.95-1.42-0.95-2.36c0-0.93,0.32-1.7,0.95-2.34c0.63-0.63,1.41-0.95,2.34-0.95
			c0.94,0,1.75,0.29,2.42,0.88l-0.88,0.96c-0.45-0.35-0.96-0.53-1.54-0.53c-0.59,0-1.07,0.19-1.43,0.55
			c-0.36,0.37-0.54,0.83-0.54,1.41c0,0.61,0.19,1.1,0.55,1.46s0.84,0.54,1.43,0.54s1.1-0.17,1.53-0.52l0.88,0.96
			c-0.67,0.59-1.48,0.88-2.42,0.88C220.48,59.64,219.7,59.32,219.06,58.69z"/>
		<path fill="#7A1600" d="M224.78,59.64l2.64-6.59h1.32l2.63,6.59l-1.4,0l-0.4-1.01h-2.99l-0.4,1.01H224.78z M228.11,54.81l-1,2.5
			h1.98L228.11,54.81z"/>
		<path fill="#7A1600" d="M232.6,59.64v-6.59h0.44l4.13,4.13v-4.13h1.32v6.59h-0.48l-4.09-4.09v4.09H232.6z"/>
		<path fill="#7A1600" d="M239.65,59.64l2.64-6.59h1.32l2.63,6.59l-1.4,0l-0.4-1.01h-2.99l-0.4,1.01H239.65z M242.98,54.81l-1,2.5
			h1.98L242.98,54.81z"/>
		<path fill="#7A1600" d="M247.44,59.64v-6.6h2.54c2.05,0,3.08,1.1,3.08,3.3c0,2.2-1.03,3.3-3.08,3.3H247.44z M249.98,58.33
			c1.17,0,1.75-0.66,1.76-1.98c0-1.32-0.59-1.98-1.76-1.98h-1.22v3.96H249.98z"/>
		<path fill="#7A1600" d="M253.58,59.64l2.64-6.59h1.32l2.63,6.59l-1.4,0l-0.4-1.01h-2.99l-0.4,1.01H253.58z M256.92,54.81l-1,2.5
			h1.98L256.92,54.81z"/>
	</g>
</g>
</svg>
